# xmcd
#
# Track frame offsets: 
#        150
#        17100
#        45725
#        77400
#
# Disc length: 1489 seconds
#
# Revision: 0
# Processed by: cddbd v1.5.1PL2 Copyright (c) Steve Scherf et al.
# Submitted via: ExactAudioCopy v0.95b3
#
DISCID=2305cf04
DTITLE=Yule Tide Outlaws - Ho Ho Ho Down Xmas (UK Maxi-Single)
DYEAR=1994
DGENRE=Christmas/Holiday
TTITLE0=Ho Ho Ho Down Xmas (7" Radio Edit)
TTITLE1=Ho Ho Ho Down Xmas (Full On Vocal Mix)
TTITLE2=Ho Ho Ho Down Xmas (No Samples Mix)
TTITLE3=Ho Ho Ho Down Xmas (Instrumental)
EXTD=
EXTT0=
EXTT1=
EXTT2=
EXTT3=
PLAYORDER=
